<svg xmlns="http://www.w3.org/2000/svg" viewBox="0 0 45.02 48.05"><defs><style>.a{fill:none;stroke:#434343;stroke-linecap:round;stroke-linejoin:round;stroke-width:2px;}</style></defs><title>delete</title><path class="a" d="M29,6.05H10l-9,9v30a2,2,0,0,0,2,2H29a2,2,0,0,0,2-2v-37A2,2,0,0,0,29,6.05Z"/><path class="a" d="M35,44.05l7-1c1.38-.19,2.16-.75,2-2l-5-38c-.17-1.58-1.46-2.25-3-2l-20,2"/><path class="a" d="M10,6.05v7a2,2,0,0,1-2,2H1"/><path class="a" d="M23,24.05l-.89,15.13a1,1,0,0,1-1,.87H11.88a1,1,0,0,1-1-.87L10,24.05"/><line class="a" x1="9" y1="24.05" x2="24" y2="24.05"/><path class="a" d="M20,24.05v-2a2,2,0,0,0-2-2H15a2,2,0,0,0-2,2v2"/><line class="a" x1="14" y1="28.05" x2="15" y2="36.05"/><line class="a" x1="19" y1="28.05" x2="18" y2="36.05"/></svg>