<svg xmlns="http://www.w3.org/2000/svg" viewBox="0 0 45.02 48.05"><defs><style>.a{fill:none;stroke:#434343;stroke-linecap:round;stroke-linejoin:round;stroke-width:2px;}</style></defs><title>heart</title><path class="a" d="M21,26.08a5.08,5.08,0,0,0-5,2.62,5.08,5.08,0,0,0-5-2.62A4.7,4.7,0,0,0,7.1,31.77c.74,3.6,4.82,5.21,8.9,9.28,4.08-4.07,8.16-5.68,8.9-9.28A4.7,4.7,0,0,0,21,26.08Z"/><path class="a" d="M29,6.05H10l-9,9v30a2,2,0,0,0,2,2H29a2,2,0,0,0,2-2v-37A2,2,0,0,0,29,6.05Z"/><path class="a" d="M35,44.05l7-1c1.38-.19,2.16-.75,2-2l-5-38c-.17-1.58-1.46-2.25-3-2l-20,2"/><path class="a" d="M10,6.05v7a2,2,0,0,1-2,2H1"/></svg>