<svg xmlns="http://www.w3.org/2000/svg" viewBox="0 0 45.02 48.05"><defs><style>.a{fill:none;stroke:#434343;stroke-linecap:round;stroke-linejoin:round;stroke-width:2px;}</style></defs><title>like</title><path class="a" d="M7,41.05H22c3.09,0,4.54-12,1-12H17a38.85,38.85,0,0,0,1.32-4.63c.46-3.1-1.16-4.37-3.32-4.37-1.3,0-.85,1.27-1.32,3.26A5.76,5.76,0,0,1,11,27.05c-1.26,1-1.93,2.69-3,3H7Z"/><path class="a" d="M17,29.05c.19.95,1,5-3,6"/><path class="a" d="M29,6.05H10l-9,9v30a2,2,0,0,0,2,2H29a2,2,0,0,0,2-2v-37A2,2,0,0,0,29,6.05Z"/><path class="a" d="M35,44.05l7-1c1.38-.19,2.16-.75,2-2l-5-38c-.17-1.58-1.46-2.25-3-2l-20,2"/><path class="a" d="M10,6.05v7a2,2,0,0,1-2,2H1"/></svg>