<svg xmlns="http://www.w3.org/2000/svg" viewBox="0 0 45.02 48.05"><defs><style>.a{fill:none;stroke:#434343;stroke-linecap:round;stroke-linejoin:round;stroke-width:2px;}</style></defs><title>lock</title><rect class="a" x="8" y="29.05" width="16" height="12" rx="2"/><path class="a" d="M11,29.05v-3c0-3,2-4,5-4s5,1,5,4v3"/><line class="a" x1="16" y1="36.05" x2="16" y2="35.05"/><path class="a" d="M29,6.05H10l-9,9v30a2,2,0,0,0,2,2H29a2,2,0,0,0,2-2v-37A2,2,0,0,0,29,6.05Z"/><path class="a" d="M35,44.05l7-1c1.38-.19,2.16-.75,2-2l-5-38c-.17-1.58-1.46-2.25-3-2l-20,2"/><path class="a" d="M10,6.05v7a2,2,0,0,1-2,2H1"/></svg>