<svg xmlns="http://www.w3.org/2000/svg" viewBox="0 0 45.02 48.05"><defs><style>.a,.b{fill:none;stroke:#434343;stroke-linecap:round;stroke-width:2px;}.a{stroke-linejoin:round;}</style></defs><title>recycle</title><path class="a" d="M29,6.05H10l-9,9v30a2,2,0,0,0,2,2H29a2,2,0,0,0,2-2v-37A2,2,0,0,0,29,6.05Z"/><path class="a" d="M35,44.05l7-1c1.38-.19,2.16-.75,2-2l-5-38c-.17-1.58-1.46-2.25-3-2l-20,2"/><path class="a" d="M10,6.05v7a2,2,0,0,1-2,2H1"/><path class="b" d="M23,24.05l-1,4-5-1m5,1-3.76-6a2,2,0,0,0-3.47,0l-1.77,3m2,13h9a2,2,0,0,0,1.73-3l-1.71-3m-13-4-3.71,7a2,2,0,0,0,1.74,3h2"/><polyline class="b" points="18 35.05 15 38.05 18 41.05"/><polyline class="b" points="13 32.05 11 28.05 6 30.05"/></svg>