<svg xmlns="http://www.w3.org/2000/svg" viewBox="0 0 45.02 48.05"><defs><style>.a,.b{fill:none;stroke:#434343;stroke-linecap:round;stroke-width:2px;}.a{stroke-linejoin:round;}</style></defs><title>refresh</title><path class="a" d="M22,26a8.41,8.41,0,0,0-6.39-3,8.82,8.82,0,0,0-8.61,9"/><polyline class="b" points="18 27.05 22 26.05 22 22.05"/><path class="a" d="M9,37.07a8.41,8.41,0,0,0,6.39,3,8.82,8.82,0,0,0,8.61-9"/><polyline class="b" points="13 36.05 9 37.05 9 41.05"/><path class="a" d="M29,6.05H10l-9,9v30a2,2,0,0,0,2,2H29a2,2,0,0,0,2-2v-37A2,2,0,0,0,29,6.05Z"/><path class="a" d="M35,44.05l7-1c1.38-.19,2.16-.75,2-2l-5-38c-.17-1.58-1.46-2.25-3-2l-20,2"/><path class="a" d="M10,6.05v7a2,2,0,0,1-2,2H1"/></svg>