<svg xmlns="http://www.w3.org/2000/svg" viewBox="0 0 45.02 48.05"><defs><style>.a{fill:none;stroke:#434343;stroke-linecap:round;stroke-linejoin:round;stroke-width:2px;}</style></defs><title>setting</title><path class="a" d="M23.16,32.05A6.72,6.72,0,0,0,23,30.7l2-1.42L23,25.82l-2.24,1a7.32,7.32,0,0,0-2.39-1.35l-.27-2.38H14l-.27,2.38a7.32,7.32,0,0,0-2.39,1.35l-2.24-1L7,29.28,9,30.7a7.07,7.07,0,0,0,0,2.7L7,34.82l2.05,3.46,2.24-1a7.32,7.32,0,0,0,2.39,1.35L14,41.05h4.1l.27-2.38a7.32,7.32,0,0,0,2.39-1.35l2.24,1L25,34.82,23,33.4A6.72,6.72,0,0,0,23.16,32.05Z"/><circle class="a" cx="16" cy="32.05" r="3"/><path class="a" d="M29,6.05H10l-9,9v30a2,2,0,0,0,2,2H29a2,2,0,0,0,2-2v-37A2,2,0,0,0,29,6.05Z"/><path class="a" d="M35,44.05l7-1c1.38-.19,2.16-.75,2-2l-5-38c-.17-1.58-1.46-2.25-3-2l-20,2"/><path class="a" d="M10,6.05v7a2,2,0,0,1-2,2H1"/></svg>