<svg xmlns="http://www.w3.org/2000/svg" viewBox="0 0 45.02 48.05"><defs><style>.a,.b{fill:none;stroke:#434343;stroke-width:2px;}.b{stroke-linecap:round;stroke-linejoin:round;}</style></defs><title>star</title><path class="a" d="M16.06,38.35,11.22,41a.42.42,0,0,1-.61-.46l.59-5.15L7.13,31.62a.45.45,0,0,1,.23-.75l5.92-1.48,2.4-5.09a.42.42,0,0,1,.76,0l2.4,5.09,5.8,1.48a.45.45,0,0,1,.23.75l-4.22,3.77.61,5.15a.42.42,0,0,1-.61.46Z"/><path class="b" d="M29,6.05H10l-9,9v30a2,2,0,0,0,2,2H29a2,2,0,0,0,2-2v-37A2,2,0,0,0,29,6.05Z"/><path class="b" d="M35,44.05l7-1c1.38-.19,2.16-.75,2-2l-5-38c-.17-1.58-1.46-2.25-3-2l-20,2"/><path class="b" d="M10,6.05v7a2,2,0,0,1-2,2H1"/></svg>