<svg xmlns="http://www.w3.org/2000/svg" viewBox="0 0 45.02 48.05"><defs><style>.a,.b,.c{fill:none;stroke:#434343;stroke-width:2px;}.a,.b{stroke-linecap:round;}.a{stroke-linejoin:round;}</style></defs><title>stocks</title><path class="a" d="M29,6.05H10l-9,9v30a2,2,0,0,0,2,2H29a2,2,0,0,0,2-2v-37A2,2,0,0,0,29,6.05Z"/><path class="a" d="M35,44.05l7-1c1.38-.19,2.16-.75,2-2l-5-38c-.17-1.58-1.46-2.25-3-2l-20,2"/><path class="a" d="M10,6.05v7a2,2,0,0,1-2,2H1"/><line class="a" x1="11" y1="31.05" x2="21" y2="21.05"/><polyline class="b" points="16 21.05 21 21.05 21 26.05"/><line class="c" x1="11" y1="37.05" x2="11" y2="41.05"/><line class="c" x1="16" y1="34.05" x2="16" y2="41.05"/><line class="c" x1="21" y1="31.05" x2="21" y2="41.05"/></svg>